# xmcd
#
# Track frame offsets: 
#        150
#        24017
#        51436
#        76186
#        102116
#        120194
#        142319
#        161304
#        182352
#        203191
#
# Disc length: 3275 seconds
#
# Revision: 0
# Processed by: cddbd v1.5.2PL0 Copyright (c) Steve Scherf et al.
# Submitted via: ExactAudioCopy v1.0b3
#
DISCID=720cc90a
DTITLE=Various Artist - Xuan Kinh Chuc Phat Tai #1
DYEAR=2001
DGENRE=
TTITLE0=Duy Khanh - Loi dau nam cho con
TTITLE1=Yen Khoa - Cau chuyen dau nam
TTITLE2=Dalena, Henry Chuc - Ngay Xuan vui cuoi
TTITLE3=Tuan Vu - Ngay dau mot nam
TTITLE4=Thanh Tuyen - Phut giao mua
TTITLE5=Huong Lan - Mua Xuan cua Me
TTITLE6=Che Linh - Mua Xuan do co em
TTITLE7=Kieu Nga - Mung nang Xuan ve
TTITLE8=Thanh Thuy - Canh thiep dau Xuan
TTITLE9=Ngoc Son, Dinh van, Che Thanh - LK Xuan ky niem
EXTD=
EXTT0=
EXTT1=
EXTT2=
EXTT3=
EXTT4=
EXTT5=
EXTT6=
EXTT7=
EXTT8=
EXTT9=
PLAYORDER=
